<?xml version="1.0" encoding="utf-8"?>
<!-- Generator: Adobe Illustrator 15.0.0, SVG Export Plug-In . SVG Version: 6.00 Build 0)  -->
<!DOCTYPE svg PUBLIC "-//W3C//DTD SVG 1.1//EN" "http://www.w3.org/Graphics/SVG/1.1/DTD/svg11.dtd">
<svg version="1.1" id="Layer_1" xmlns="http://www.w3.org/2000/svg" xmlns:xlink="http://www.w3.org/1999/xlink" x="0px" y="0px"
	 width="26px" height="26px" viewBox="0 0 26 26" enable-background="new 0 0 26 26" xml:space="preserve">
<g>
	<path d="M23.008,12.789l-2.37-2.371l-5.146,5.145l-1.38,4.164l4.124-1.419l5.145-5.146L23.008,12.789L23.008,12.789z
		 M14.928,18.901l0.762-2.433l1.647,1.649L14.928,18.901z"/>
	<path d="M24.806,11.45l-2.455-2.458c-0.081-0.079-0.209-0.079-0.288,0l-0.979,0.98c-0.079,0.08-0.079,0.207,0,0.287l2.457,2.457
		c0.079,0.079,0.208,0.078,0.287,0l0.978-0.98C24.885,11.657,24.885,11.529,24.806,11.45z"/>
	<path d="M5.205,15.967V7.686h12.648v3.702l1.152-1.152v-3.64c0-0.169-0.137-0.307-0.309-0.307H4.105
		c-0.171,0-0.309,0.138-0.309,0.307v12.628c0,0.169,0.138,0.307,0.309,0.307h9.161l1.183-3.564H5.205z"/>
	<path d="M9.164,13.787C6.952,9.35,5.48,14.973,5.48,14.973h3.292h0.908h4.766C11.894,8.311,9.956,11.728,9.164,13.787z"/>
	<circle cx="14.717" cy="9.578" r="1.243"/>
</g>
</svg>
